#!OML:ASF F:\VICON\USERDATA\INSTALL\rory3\rory3.ASF
:FULLY-SPECIFIED
:DEGREES
1991
root -5.08808 18.6871 5.61828 -179.685 -55.4491 184.429
lowerback 6.88286 0.527514 -4.88997
upperback 3.39767 0.279245 0.401189
thorax -0.373647 0.0278557 3.1411
lowerneck 1.60157 -4.086 -6.11825
upperneck 29.5912 -12.6854 14.9528
head 10.5344 -6.23224 5.21116
rclavicle -4.69132e-014 3.02153e-014
rhumerus -1.18104 18.2141 -76.8338
rradius 76.6001
rwrist 16.8566
rhand -36.895 6.52159
rfingers 7.12502
rthumb -9.97336 -23.2221
lclavicle -4.69132e-014 3.02153e-014
lhumerus -3.5973 -18.2422 79.4842
lradius 63.3457
lwrist -12.112
lhand -24.0383 25.5518
lfingers 7.12502
lthumb 2.44042 55.5176
rfemur -21.7252 20.0305 6.3129
rtibia 37.0276
rfoot -14.937 -1.02966
rtoes -11.071
lfemur -18.3022 -5.55311 -13.308
ltibia 24.5532
lfoot -18.7548 32.7177
ltoes 8.67002
1992
root -5.05755 18.6798 5.59579 -179.318 -55.5665 183.802
lowerback 6.83556 0.523107 -5.11389
upperback 3.38666 0.262966 0.390259
thorax -0.357241 0.0175211 3.25707
lowerneck 1.44448 -4.04649 -6.28661
upperneck 29.3481 -12.5108 15.0094
head 10.4583 -6.14614 5.26984
rclavicle -5.71506e-014 -3.97569e-015
rhumerus -2.98213 18.7962 -77.0489
rradius 74.3294
rwrist 16.8137
rhand -36.2161 5.61891
rfingers 7.12502
rthumb -9.31834 -24.1551
lclavicle -5.71506e-014 -3.97569e-015
lhumerus -5.11973 -18.2009 80.5373
lradius 61.7368
lwrist -12.4857
lhand -22.828 24.3041
lfingers 7.12502
lthumb 3.60916 54.2533
rfemur -21.0425 20.2184 6.20712
rtibia 37.7699
rfoot -15.226 -0.597748
rtoes -10.842
lfemur -18.1116 -5.56816 -13.5938
ltibia 24.397
lfoot -18.2836 32.629
ltoes 8.28548
1993
root -5.02514 18.6721 5.56456 -178.892 -55.7369 183.031
lowerback 6.81829 0.505898 -5.48587
upperback 3.36543 0.218166 0.343241
thorax -0.364841 -0.00771231 3.421
lowerneck 1.37012 -4.00812 -6.26923
upperneck 29.1015 -12.3255 14.9485
head 10.3451 -6.05159 5.25426
rclavicle -1.22253e-014 1.11319e-014
rhumerus -4.83847 19.449 -77.399
rradius 71.894
rwrist 16.5871
rhand -35.7714 4.40767
rfingers 7.12502
rthumb -8.88917 -25.3851
lclavicle -1.22253e-014 1.11319e-014
lhumerus -6.66865 -18.1821 81.5108
lradius 60.0033
lwrist -12.7127
lhand -19.7487 20.3627
lfingers 7.12502
lthumb 6.58244 50.2404
rfemur -20.2211 20.3197 6.07924
rtibia 38.4789
rfoot -15.4717 0.13171
rtoes -10.6006
lfemur -17.8803 -5.51084 -13.9689
ltibia 24.314
lfoot -17.7999 32.4816
ltoes 7.56048
1994
root -4.98056 18.6601 5.52554 -178.442 -55.9044 182.231
lowerback 6.88594 0.501799 -6.0423
upperback 3.31024 0.173589 0.323295
thorax -0.453711 -0.0314826 3.71698
lowerneck 1.31262 -3.93806 -6.2493
upperneck 28.8442 -12.1348 14.9947
head 10.2321 -5.95016 5.27927
rclavicle -3.02153e-014 -1.39149e-014
rhumerus -6.71014 20.1 -77.8955
rradius 69.1793
rwrist 16.6487
rhand -35.3657 3.73608
rfingers 7.12502
rthumb -8.49774 -26.0729
lclavicle -3.02153e-014 -1.39149e-014
lhumerus -8.1866 -18.1528 82.3051
lradius 58.0416
lwrist -12.6361
lhand -19.0783 21.189
lfingers 7.12502
lthumb 7.22956 51.0455
rfemur -19.435 20.2886 5.96961
rtibia 39.1181
rfoot -15.5754 1.1802
rtoes -10.464
lfemur -17.7682 -5.05398 -14.3389
ltibia 24.3635
lfoot -16.9003 32.0633
ltoes 6.38871
1995
root -4.94282 18.6442 5.52444 -178.626 -56.3683 182.362
lowerback 7.09224 0.394094 -5.38502
upperback 3.18819 0.0604223 0.310991
thorax -0.684834 -0.0699163 3.34276
lowerneck 1.14697 -3.94769 -6.3399
upperneck 28.5532 -12.0404 15.0922
head 10.1513 -5.88907 5.32917
rclavicle -1.40243e-013 1.66979e-014
rhumerus -8.52009 20.4998 -78.2925
rradius 66.2807
rwrist 16.7172
rhand -35.0746 3.24884
rfingers 7.12502
rthumb -8.21675 -26.5714
lclavicle -1.40243e-013 1.66979e-014
lhumerus -9.60704 -18.1285 83.0752
lradius 55.9052
lwrist -12.3015
lhand -20.1892 22.7304
lfingers 7.12502
lthumb 6.15715 52.621
rfemur -18.7024 19.8009 6.28806
rtibia 39.6152
rfoot -15.5742 2.42667
rtoes -10.2609
lfemur -18.0499 -5.04918 -14.1768
ltibia 24.5068
lfoot -16.1488 31.7255
ltoes 5.55855
1996
root -4.90296 18.6435 5.49801 -179.282 -56.404 183.216
lowerback 6.90872 0.447036 -4.66125
upperback 3.10993 0.195613 0.484491
thorax -0.677985 0.00753459 3.10465
lowerneck 1.03524 -3.99639 -6.49171
upperneck 28.0844 -11.9095 15.1144
head 9.98651 -5.81992 5.36309
rclavicle 8.05078e-015 1.59028e-014
rhumerus -10.1916 20.745 -78.6308
rradius 63.2834
rwrist 16.3544
rhand -34.3203 3.00231
rfingers 7.12502
rthumb -7.48875 -26.8451
lclavicle 8.05078e-015 1.59028e-014
lhumerus -10.9416 -17.8603 83.8748
lradius 53.6333
lwrist -11.9126
lhand -19.5208 21.3955
lfingers 7.12502
lthumb 6.80238 51.2662
rfemur -18.0944 20.2095 7.06799
rtibia 39.9654
rfoot -15.5748 3.38724
rtoes -10.3436
lfemur -18.2964 -4.88349 -13.4441
ltibia 24.656
lfoot -16.0081 31.375
ltoes 5.36255
1997
root -4.86606 18.6444 5.46149 -179.354 -56.6465 183.241
lowerback 6.74438 0.430121 -4.49571
upperback 3.04568 0.196988 0.56547
thorax -0.653454 0.0121417 3.09514
lowerneck 1.01596 -4.00115 -6.55253
upperneck 27.617 -11.7186 15.0737
head 9.78889 -5.72677 5.36621
rclavicle 5.19822e-014 -1.43125e-014
rhumerus -11.8513 21.1271 -79.0609
rradius 60.0832
rwrist 15.9877
rhand -33.3007 3.01992
rfingers 7.12502
rthumb -6.50453 -26.8602
lclavicle 5.19822e-014 -1.43125e-014
lhumerus -12.3462 -17.3149 84.5591
lradius 51.4201
lwrist -12.2339
lhand -20.1078 38.3155
lfingers 7.12502
lthumb 6.23577 68.2037
rfemur -17.3342 20.5292 7.36427
rtibia 40.1553
rfoot -15.3742 4.81411
rtoes -9.9764
lfemur -18.3144 -5.23018 -13.1769
ltibia 24.7744
lfoot -17.1435 30.8226
ltoes 7.842
1998
root -4.83025 18.6378 5.4246 -178.852 -57.0754 182.697
lowerback 6.47685 0.387326 -4.56082
upperback 2.94416 0.154477 0.519861
thorax -0.605903 -0.00532258 3.08757
lowerneck 0.990022 -4.00473 -6.47018
upperneck 27.1579 -11.5428 15.0233
head 9.59223 -5.62814 5.33861
rclavicle 9.40251e-014 -2.22639e-014
rhumerus -13.5741 21.5442 -79.5283
rradius 56.732
rwrist 15.6986
rhand -32.4304 3.10148
rfingers 7.12502
rthumb -5.66425 -26.8028
lclavicle 9.40251e-014 -2.22639e-014
lhumerus -13.7003 -16.9127 85.1461
lradius 48.948
lwrist -11.933
lhand -19.5711 29.4384
lfingers 7.12502
lthumb 6.75388 59.3107
rfemur -16.6801 20.6361 7.23615
rtibia 40.185
rfoot -14.7127 6.73004
rtoes -8.40677
lfemur -18.3353 -5.75715 -13.2424
ltibia 24.7489
lfoot -18.9036 29.855
ltoes 12.4121
1999
root -4.78839 18.6246 5.38068 -178.543 -57.5973 182.156
lowerback 6.42998 0.373473 -4.62108
upperback 2.92314 0.135367 0.460086
thorax -0.599761 -0.0140757 3.06094
lowerneck 0.834253 -4.02722 -6.3022
upperneck 26.6609 -11.3428 14.8764
head 9.3956 -5.50524 5.25809
rclavicle -5.56597e-014 -3.57812e-015
rhumerus -15.2363 21.5099 -80.055
rradius 53.2902
rwrist 15.5786
rhand -31.3547 3.04765
rfingers 7.12502
rthumb -4.62565 -26.8819
lclavicle -5.56597e-014 -3.57812e-015
lhumerus -14.9506 -16.442 85.6327
lradius 46.3302
lwrist -11.5656
lhand -18.5841 24.5572
lfingers 7.12502
lthumb 7.70661 54.3968
rfemur -15.6678 20.6943 7.35214
rtibia 40.1067
rfoot -14.0925 8.45327
rtoes -8.3487
lfemur -18.2718 -5.8216 -13.3893
ltibia 24.6307
lfoot -18.3543 29.5073
ltoes 12.147
